<?xml version="1.0" standalone="no"?>
<!DOCTYPE svg PUBLIC "-//W3C//DTD SVG 20010904//EN"
 "http://www.w3.org/TR/2001/REC-SVG-20010904/DTD/svg10.dtd">
<svg version="1.0" xmlns="http://www.w3.org/2000/svg"
 width="450.000000pt" height="450.000000pt" viewBox="0 0 450.000000 450.000000"
 preserveAspectRatio="xMidYMid meet">

<g transform="translate(0.000000,450.000000) scale(0.100000,-0.100000)"
fill="#000000" stroke="none">
<path d="M780 4337 c-89 -30 -152 -69 -214 -132 -241 -246 -176 -668 129 -826
93 -49 160 -62 281 -57 78 4 113 11 167 33 l68 27 120 -32 c67 -17 123 -29
125 -27 3 3 -9 59 -26 127 l-31 122 26 63 c67 168 49 351 -50 499 -64 97 -164
169 -284 206 -90 28 -224 27 -311 -3z m8 -222 c29 -8 92 -91 92 -121 0 -23
-18 -47 -50 -64 -26 -14 -16 -42 39 -102 55 -61 125 -108 161 -108 21 0 29 7
39 35 10 28 18 35 39 35 31 0 86 -31 113 -63 41 -49 13 -119 -64 -158 -90 -46
-177 -8 -333 146 -157 155 -200 232 -175 314 13 45 74 104 99 97 9 -2 27 -7
40 -11z"/>
<path d="M2373 3940 c0 -30 2 -43 4 -27 2 15 2 39 0 55 -2 15 -4 2 -4 -28z"/>
<path d="M2547 3831 c-31 -44 -57 -83 -57 -87 0 -8 68 82 104 139 38 57 7 24
-47 -52z"/>
<path d="M2363 3835 c0 -27 2 -38 4 -22 2 15 2 37 0 50 -2 12 -4 0 -4 -28z"/>
<path d="M1905 3716 c-118 -28 -194 -88 -216 -168 -14 -53 -8 -143 13 -184 15
-31 15 -32 -25 -83 -22 -28 -48 -51 -57 -51 -10 0 -23 -7 -30 -15 -7 -8 -18
-15 -26 -15 -7 0 -19 -10 -25 -22 -7 -13 -20 -29 -31 -36 -10 -7 -18 -19 -18
-26 0 -8 -7 -19 -16 -27 -9 -8 -14 -25 -12 -46 2 -26 -6 -44 -38 -86 -54 -70
-56 -74 -49 -97 10 -31 258 -220 288 -220 16 0 36 13 58 37 20 23 34 33 37 25
9 -27 56 -74 96 -95 34 -18 58 -22 138 -22 75 0 98 -3 98 -13 0 -8 -9 -50 -21
-95 -29 -114 -24 -200 15 -233 60 -52 165 -15 283 101 l71 70 7 103 c4 72 3
102 -4 97 -6 -3 -11 -34 -11 -68 -1 -108 -12 -136 -80 -199 -108 -100 -227
-139 -264 -86 -23 32 -20 142 5 243 l21 84 69 21 c39 11 67 24 65 29 -3 4 -38
-3 -78 -17 -132 -44 -290 -31 -355 29 -40 38 -66 117 -70 214 -5 95 18 342 35
387 l11 26 59 -24 c90 -36 196 -56 313 -57 l107 -2 4 -55 c2 -34 16 -81 36
-123 17 -37 34 -83 38 -102 3 -19 11 -35 16 -35 6 0 28 16 49 34 44 41 105 61
142 47 89 -34 87 -167 -3 -228 -43 -30 -78 -29 -124 2 -38 26 -49 20 -17 -9
11 -10 21 -32 23 -50 4 -39 20 -40 70 -1 111 85 110 83 180 290 26 76 35 234
18 303 -16 67 -55 125 -101 151 -25 14 -45 37 -60 69 -70 145 -272 243 -494
241 -49 0 -113 -6 -140 -13z m-141 -446 c-20 -55 -44 -264 -44 -379 0 -38 6
-88 14 -113 13 -45 13 -45 -21 -87 -19 -22 -41 -41 -49 -41 -24 0 -274 201
-274 220 0 29 83 130 105 129 37 -2 45 1 45 16 0 8 9 15 19 15 22 0 54 27 46
40 -2 4 7 8 21 8 26 0 46 18 40 37 -1 6 10 15 26 22 37 16 36 45 -2 75 l-29
23 32 41 c31 40 33 41 54 25 13 -9 20 -22 17 -31z m-88 -73 c37 -33 24 -51
-29 -43 l-41 7 24 -26 c30 -32 16 -55 -24 -37 -29 13 -39 6 -26 -19 13 -23 -1
-32 -36 -23 -24 6 -26 5 -21 -15 7 -30 -11 -37 -35 -13 l-20 20 27 46 c15 25
32 46 39 46 6 0 16 10 21 23 6 12 15 21 20 21 6 -1 16 7 23 17 18 25 45 24 78
-4z"/>
<path d="M2652 3677 c-51 -23 -89 -43 -84 -45 5 -1 51 18 103 42 52 25 90 45
84 45 -5 0 -52 -19 -103 -42z"/>
<path d="M1855 3151 c-3 -5 8 -9 25 -9 16 1 30 5 30 10 0 11 -47 10 -55 -1z"/>
<path d="M2090 3109 c0 -7 3 -9 6 -6 4 3 16 2 26 -4 16 -9 19 -8 16 3 -6 17
-48 23 -48 7z"/>
<path d="M1840 3029 c0 -11 5 -17 10 -14 6 3 10 13 10 21 0 8 -4 14 -10 14 -5
0 -10 -9 -10 -21z"/>
<path d="M2077 2996 c-4 -10 -5 -21 -2 -24 9 -9 17 6 13 25 -3 17 -4 17 -11
-1z"/>
<path d="M1912 2927 c-12 -13 -22 -28 -22 -34 0 -17 28 -35 47 -30 16 4 15 6
-4 12 -29 9 -29 22 -1 52 12 13 17 23 11 23 -5 0 -19 -10 -31 -23z"/>
<path d="M2463 2888 c-26 -27 -30 -48 -9 -48 24 0 38 -26 21 -40 -8 -7 -15
-17 -15 -23 0 -5 9 -2 20 8 11 10 20 27 20 37 0 11 -9 22 -20 25 -23 6 -25 14
-8 31 17 17 59 15 86 -4 12 -8 22 -11 22 -6 0 16 -27 33 -62 38 -26 5 -38 1
-55 -18z"/>
<path d="M3723 2821 c-11 -12 -37 -59 -59 -106 -21 -46 -41 -84 -44 -84 -3 -1
-13 17 -22 39 -20 48 -45 61 -64 35 -17 -23 -19 -153 -3 -222 9 -42 4 -89 -40
-372 -28 -178 -53 -326 -54 -328 -2 -2 -35 38 -72 89 -143 192 -352 386 -488
455 -88 44 -315 104 -282 75 6 -5 37 -15 70 -22 189 -40 312 -114 495 -299
107 -107 260 -300 260 -326 0 -23 -79 -150 -137 -221 -29 -35 -78 -82 -109
-106 l-57 -42 -213 219 c-117 121 -213 216 -213 210 0 -10 47 -61 281 -305
l137 -142 43 25 c59 34 156 137 217 231 35 54 51 72 51 57 0 -37 17 -14 23 31
4 24 31 196 61 383 53 338 54 341 39 410 -14 67 -13 171 2 195 11 18 32 -7 50
-61 9 -27 20 -49 23 -49 4 0 25 41 46 91 22 51 50 103 62 118 l23 26 0 -45 c0
-25 -4 -63 -9 -85 -5 -22 -7 -41 -6 -43 2 -1 17 21 34 51 41 72 62 94 73 74 8
-13 -7 -90 -26 -139 -13 -32 10 -19 29 17 22 41 53 71 63 61 7 -6 -3 -37 -42
-141 -6 -15 1 -12 26 13 19 17 38 32 42 32 11 0 -29 -74 -88 -165 l-52 -80
-22 -230 c-39 -414 -61 -589 -81 -656 -37 -124 -109 -189 -210 -189 -50 0
-162 31 -188 52 -7 6 -16 8 -19 4 -10 -9 10 -22 74 -45 159 -61 275 -21 337
118 39 87 50 161 100 688 24 243 26 254 54 295 59 87 112 185 112 206 0 25 -4
26 -30 12 -17 -9 -17 -7 -4 37 12 39 12 49 1 60 -11 11 -18 10 -38 -6 l-25
-19 0 46 c1 61 -25 70 -64 22 l-26 -32 4 33 c2 19 -3 42 -11 53 -13 18 -14 18
-34 -3z"/>
<path d="M1214 2727 c-170 -176 -366 -394 -400 -444 -116 -173 -64 -364 113
-413 23 -7 47 -10 55 -7 7 2 -7 10 -32 17 -115 31 -172 93 -178 194 -9 134 20
179 323 504 125 134 225 246 222 248 -2 2 -48 -42 -103 -99z"/>
<path d="M1880 2787 c0 -51 79 -79 120 -42 34 31 25 45 -27 45 -27 0 -58 3
-70 6 -17 5 -23 2 -23 -9z"/>
<path d="M1305 2398 c-115 -150 -212 -276 -214 -281 -12 -31 28 12 106 113 49
63 144 186 211 272 67 87 122 160 122 163 0 20 -39 -27 -225 -267z"/>
<path d="M3640 2577 c0 -3 10 -23 22 -43 12 -21 25 -56 29 -78 l6 -41 2 43 c1
44 -16 89 -43 111 -9 8 -16 11 -16 8z"/>
<path d="M1610 2408 c-140 -11 -257 -22 -259 -24 -13 -12 28 -12 264 6 143 11
268 20 278 20 9 0 17 5 17 10 0 12 21 13 -300 -12z"/>
<path d="M1080 2018 c0 -39 5 -100 11 -135 l11 -64 167 7 c91 4 173 11 181 16
9 5 -55 6 -161 2 l-176 -6 -6 47 c-4 26 -7 83 -7 126 0 46 -4 79 -10 79 -6 0
-10 -31 -10 -72z"/>
<path d="M1596 2011 c-17 -27 -97 -888 -116 -1241 -5 -107 -12 -228 -15 -268
-3 -44 -1 -72 5 -72 6 0 10 10 10 23 0 191 56 901 105 1341 14 121 23 221 21
223 -2 3 -7 0 -10 -6z"/>
<path d="M2786 1523 c-17 -53 -25 -473 -15 -793 6 -189 12 -346 15 -349 2 -2
6 -2 8 0 2 2 -1 162 -7 354 -8 261 -7 407 1 574 11 213 11 256 -2 214z"/>
<path d="M1030 1444 c-36 -12 -60 -23 -54 -23 6 -1 31 6 54 14 24 8 45 14 47
12 3 -3 -75 -175 -193 -423 -8 -17 -26 -37 -39 -44 -14 -7 -23 -15 -20 -18 11
-11 54 31 74 72 11 25 24 46 27 46 15 0 332 -186 328 -192 -3 -5 2 -8 10 -8
20 0 19 12 -4 75 -20 53 -28 50 -9 -4 6 -18 9 -34 6 -37 -4 -5 -327 174 -327
181 0 4 138 302 153 330 9 17 15 6 43 -75 18 -52 33 -90 33 -85 1 6 -14 54
-31 106 l-33 96 -65 -23z"/>
<path d="M825 1380 c-60 -21 -105 -39 -100 -39 6 -1 62 17 125 38 63 22 108
39 100 39 -8 0 -64 -17 -125 -38z"/>
<path d="M575 1300 c-60 -21 -105 -39 -100 -39 6 -1 62 17 125 38 63 22 108
39 100 39 -8 0 -64 -17 -125 -38z"/>
<path d="M358 1232 c-27 -8 -48 -21 -48 -27 0 -15 68 -212 69 -199 1 5 -12 49
-28 97 -17 48 -26 87 -21 87 9 0 308 -167 323 -180 4 -3 -25 -74 -64 -156 -39
-82 -76 -160 -81 -174 l-10 -25 -14 30 c-7 17 -13 25 -14 18 0 -21 23 -63 34
-63 16 0 243 78 230 79 -5 1 -57 -15 -114 -34 -57 -19 -105 -33 -107 -31 -4 4
83 198 133 299 l24 47 50 -25 c27 -14 60 -25 72 -24 18 1 16 3 -9 9 -36 8
-454 242 -447 250 3 3 26 13 52 22 60 21 33 21 -30 0z"/>
<path d="M1161 1245 c-1 -6 17 -62 38 -125 22 -63 40 -110 40 -105 1 6 -17 62
-38 125 -22 63 -40 110 -40 105z"/>
<path d="M3518 983 c12 -2 32 -2 45 0 12 2 2 4 -23 4 -25 0 -35 -2 -22 -4z"/>
<path d="M3389 957 c-116 -48 -197 -129 -245 -245 -13 -31 -23 -68 -23 -82 0
-15 6 -3 14 27 41 152 155 267 306 307 31 9 43 15 29 15 -14 0 -50 -10 -81
-22z"/>
<path d="M3630 970 c138 -30 262 -139 311 -273 10 -29 18 -44 19 -33 0 10 -14
47 -31 82 -57 115 -195 220 -302 230 l-42 3 45 -9z"/>
<path d="M415 872 c19 -64 54 -156 54 -146 1 14 -47 155 -55 163 -4 3 -3 -5 1
-17z"/>
<path d="M1105 840 c-60 -21 -105 -39 -100 -39 6 -1 62 17 125 38 63 22 108
39 100 39 -8 0 -64 -17 -125 -38z"/>
<path d="M3473 829 c-45 -22 -83 -82 -83 -130 1 -37 36 -106 64 -124 27 -18
26 -35 0 -35 -35 0 -129 -57 -170 -103 -24 -27 -44 -52 -44 -56 0 -13 44 -67
75 -93 147 -124 362 -108 491 35 24 27 44 53 44 57 0 4 -21 30 -47 58 -48 50
-135 102 -172 102 -11 0 -23 5 -26 10 -3 6 -2 10 4 10 5 0 23 14 40 30 76 77
52 204 -46 246 -45 19 -81 17 -130 -7z"/>
<path d="M855 760 c-60 -21 -105 -39 -100 -39 6 -1 62 17 125 38 63 22 108 39
100 39 -8 0 -64 -17 -125 -38z"/>
<path d="M3962 610 c0 -19 2 -27 5 -17 2 9 2 25 0 35 -3 9 -5 1 -5 -18z"/>
<path d="M3111 569 c-3 -97 49 -237 110 -294 28 -27 27 -24 -9 22 -50 65 -78
138 -90 235 -6 43 -10 58 -11 37z"/>
<path d="M3963 505 c0 -22 2 -30 4 -17 2 12 2 30 0 40 -3 9 -5 -1 -4 -23z"/>
<path d="M3951 450 c-2 -27 -52 -124 -85 -165 -42 -51 -97 -90 -173 -121 -32
-13 -51 -24 -42 -24 36 0 158 72 203 120 49 52 112 170 103 192 -4 9 -6 8 -6
-2z"/>
<path d="M3330 184 c0 -7 71 -36 76 -31 2 2 -14 11 -36 20 -22 8 -40 13 -40
11z"/>
<path d="M3435 140 c19 -8 93 -14 84 -6 -2 2 -26 6 -54 9 -32 4 -43 3 -30 -3z"/>
<path d="M3583 133 c9 -2 25 -2 35 0 9 3 1 5 -18 5 -19 0 -27 -2 -17 -5z"/>
</g>
</svg>
