<svg width="244" height="154" viewBox="0 0 244 154" fill="none" xmlns="http://www.w3.org/2000/svg">
<path d="M67.5774 151L62.0335 146.765V109.319C61.9867 108.899 61.991 108.514 62.0335 108.176V109.319C62.3571 112.22 65.1235 116.743 74.6334 118.059C88.2412 119.941 86.2252 116.647 101.345 110.529C113.441 105.635 130.577 110.059 137.633 112.882C145.36 115.235 162.631 118.529 169.888 112.882C177.146 107.235 182.32 98.6078 184 95V143.941L178.456 149.588L67.5774 151Z" fill="#FF6565"/>
<path d="M126.651 7.43618L126.652 7.43672L156.336 33.1226L126.651 7.43618ZM126.651 7.43618C125.483 6.42722 123.976 5.93923 122.499 5.93923C121.023 5.93923 119.515 6.42389 118.347 7.44013M126.651 7.43618L118.347 7.44013M118.347 7.44013C118.347 7.44044 118.346 7.44075 118.346 7.44107L46.4478 69.6538C45.9073 70.1214 45.4757 70.6177 45.2123 71.1348C44.9472 71.6555 44.8153 72.2814 45.0457 72.9001C45.2761 73.5188 45.7854 73.9059 46.3262 74.1261C46.8635 74.3449 47.5142 74.4379 48.2282 74.4379H60.3939C62.3943 74.4379 64.0188 76.0624 64.0188 78.064V142.437C64.0188 145.543 66.5382 148.063 69.6436 148.063H175.357C178.462 148.063 180.981 145.543 180.981 142.437V81.6284V81.6283V81.6281V81.6279V81.6277V81.6274V81.6271V81.6268V81.6264V81.6259V81.6255V81.6249V81.6244V81.6238V81.6231V81.6225V81.6217V81.621V81.6202V81.6193V81.6184V81.6175V81.6165V81.6155V81.6145V81.6134V81.6122V81.6111V81.6099V81.6086V81.6073V81.606V81.6046V81.6032V81.6018V81.6003V81.5987V81.5972V81.5956V81.5939V81.5922V81.5905V81.5887V81.5869V81.5851V81.5832V81.5813V81.5793V81.5773V81.5753V81.5732V81.5711V81.5689V81.5667V81.5645V81.5622V81.5599V81.5575V81.5552V81.5527V81.5503V81.5478V81.5452V81.5427V81.54V81.5374V81.5347V81.532V81.5292V81.5264V81.5236V81.5207V81.5178V81.5148V81.5118V81.5088V81.5057V81.5026V81.4995V81.4963V81.4931V81.4899V81.4866V81.4832V81.4799V81.4765V81.4731V81.4696V81.4661V81.4625V81.459V81.4553V81.4517V81.448V81.4443V81.4405V81.4367V81.4329V81.429V81.4251V81.4212V81.4172V81.4132V81.4092V81.4051V81.401V81.3968V81.3926V81.3884V81.3842V81.3799V81.3755V81.3712V81.3668V81.3624V81.3579V81.3534V81.3489V81.3443V81.3397V81.3351V81.3304V81.3257V81.3209V81.3162V81.3114V81.3065V81.3016V81.2967V81.2918V81.2868V81.2818V81.2768V81.2717V81.2666V81.2614V81.2562V81.251V81.2458V81.2405V81.2352V81.2299V81.2245V81.2191V81.2136V81.2081V81.2026V81.1971V81.1915V81.1859V81.1803V81.1746V81.1689V81.1632V81.1574V81.1516V81.1458V81.1399V81.134V81.1281V81.1221V81.1161V81.1101V81.104V81.098V81.0918V81.0857V81.0795V81.0733V81.067V81.0608V81.0545V81.0481V81.0418V81.0354V81.0289V81.0225V81.016V81.0095V81.0029V80.9963V80.9897V80.9831V80.9764V80.9697V80.9629V80.9562V80.9494V80.9425V80.9357V80.9288V80.9219V80.9149V80.908V80.901V80.8939V80.8868V80.8798V80.8726V80.8655V80.8583V80.8511V80.8438V80.8366V80.8293V80.8219V80.8146V80.8072V80.7998V80.7923V80.7849V80.7774V80.7698V80.7623V80.7547V80.7471V80.7394V80.7318V80.7241V80.7163V80.7086V80.7008V80.693V80.6851V80.6773V80.6694V80.6614V80.6535V80.6455V80.6375V80.6295V80.6214V80.6133V80.6052V80.5971V80.5889V80.5807V80.5725V80.5642V80.5559V80.5476V80.5393V80.5309V80.5225V80.5141V80.5057V80.4972V80.4887V80.4802V80.4717V80.4631V80.4545V80.4459V80.4372V80.4286V80.4199V80.4111V80.4024V80.3936V80.3848V80.376V80.3671V80.3582V80.3493V80.3404V80.3314V80.3225V80.3135V80.3044V80.2954V80.2863V80.2772V80.2681V80.2589V80.2497V80.2405V80.2313V80.222V80.2127V80.2034V80.1941V80.1848V80.1754V80.166V80.1566V80.1471V80.1376V80.1282V80.1186V80.1091V80.0995V80.0899V80.0803V80.0707V80.061V80.0513V80.0416V80.0319V80.0221V80.0124V80.0026V79.9927V79.9829V79.973V79.9631V79.9532V79.9433V79.9333V79.9233V79.9133V79.9033V79.8932V79.8832V79.8731V79.863V79.8528V79.8427V79.8325V79.8223V79.812V79.8018V79.7915V79.7812V79.7709V79.7606V79.7502V79.7399V79.7295V79.719V79.7086V79.6981V79.6877V79.6771V79.6666V79.6561V79.6455V79.6349V79.6243V79.6137V79.603V79.5924V79.5817V79.571V79.5602V79.5495V79.5387V79.5279V79.5171V79.5062V79.4954V79.4845V79.4736V79.4627V79.4518V79.4408V79.4299V79.4189V79.4079V79.3968V79.3858V79.3747V79.3636V79.3525V79.3414V79.3302V79.3191V79.3079V79.2967V79.2855V79.2742V79.263V79.2517V79.2404V79.2291V79.2178V79.2064V79.195V79.1836V79.1722V79.1608V79.1494V79.1379V79.1264V79.1149V79.1034V79.0919V79.0804V79.0688V79.0572V79.0456V79.034V79.0223V79.0107V78.999V78.9873V78.9756V78.9639V78.9522V78.9404V78.9286V78.9169V78.9051V78.8932V78.8814V78.8695V78.8577V78.8458V78.8339V78.822V78.81V78.7981V78.7861V78.7741V78.7621V78.7501V78.7381V78.726V78.7139V78.7019V78.6898V78.6777V78.6655V78.6534V78.6412V78.6291V78.6169V78.6047V78.5924V78.5802V78.568V78.5557V78.5434V78.5311V78.5188V78.5065V78.4942V78.4818V78.4695V78.4571V78.4447V78.4323V78.4198V78.4074V78.395V78.3825V78.37V78.3575V78.345V78.3325V78.32V78.3074V78.2949V78.2823V78.2697V78.2571V78.2445V78.2318V78.2192V78.2066V78.1939V78.1812V78.1685V78.1558V78.1431V78.1304V78.1176V78.1049V78.0921V78.0793V78.0665V78.0537V78.0409V78.0281V78.0152V78.0023V77.9895V77.9766V77.9637V77.9508V77.9379V77.925V77.912V77.8991V77.8861V77.8731V77.8602V77.8472V77.8342V77.8211V77.8081V77.7951V77.782V77.769V77.7559V77.7428V77.7297V77.7166V77.7035V77.6903V77.6772V77.6641V77.6509V77.6377V77.6245V77.6114V77.5982V77.5849V77.5717V77.5585V77.5453V77.532C180.981 75.9328 182.488 74.4356 184.606 74.4356H196.772C197.486 74.4356 198.137 74.3426 198.674 74.1238C199.215 73.9036 199.724 73.5165 199.954 72.8978C200.185 72.2791 200.053 71.6532 199.788 71.1325C199.524 70.6154 199.093 70.119 198.552 69.6515L184.134 57.1748L184.134 57.1747C183.306 56.4583 182.508 55.315 181.915 54.0189C181.323 52.7227 180.981 51.371 180.981 50.277V26.0823C180.981 22.9766 178.462 20.4561 175.357 20.4561H163.806C160.7 20.4561 158.181 22.9766 158.181 26.0823V32.279C158.181 32.98 158.041 33.3891 157.91 33.5903C157.806 33.7487 157.715 33.7817 157.595 33.7817C157.387 33.7817 156.956 33.6577 156.337 33.1234L118.347 7.44013ZM43.2168 65.9181L43.2171 65.9179L115.117 3.69915C115.117 3.69902 115.117 3.69889 115.117 3.69876C117.127 1.96377 119.746 1 122.499 1C125.251 1 127.871 1.96382 129.883 3.70141L152.23 23.0381L153.344 24.0017L153.829 22.6112C155.268 18.4841 159.2 15.5169 163.806 15.5169H175.357C181.179 15.5169 185.919 20.2571 185.919 26.0823V50.2632V50.2856L185.92 50.3081C185.943 50.8209 186.18 51.4701 186.405 51.9631C186.629 52.4548 186.962 53.0586 187.332 53.4085L187.348 53.424L187.365 53.4388L201.781 65.9155L201.781 65.9159C203.961 67.8001 204.73 69.714 204.937 71.2545C205.147 72.8222 204.783 74.081 204.583 74.6203L204.582 74.6209C204.382 75.1609 203.834 76.351 202.65 77.3995C201.487 78.4299 199.654 79.3748 196.772 79.3748H186.919H185.919V80.3748V81.6262V142.435C185.919 148.26 181.179 153 175.357 153H69.6436C63.8208 153 59.0815 148.26 59.0815 142.435V80.3748V79.3748H58.0815H48.2282C45.3466 79.3748 43.5136 78.4299 42.3502 77.3995C41.1662 76.351 40.6183 75.1609 40.4177 74.6209L40.4174 74.6203C40.2167 74.0809 39.8533 72.8226 40.0632 71.2555C40.2695 69.7156 41.0379 67.8023 43.2168 65.9181Z" fill="white" stroke="#1B1D1C" stroke-width="2"/>
<rect x="15" y="25" width="98" height="25" rx="12.5" fill="#FFAB00"/>
<path d="M23.9 35.568V34.224L27.248 33.468V42H25.844V35.028L23.9 35.568ZM30.5556 37.8C30.5556 38.248 30.5996 38.66 30.6876 39.036C30.7756 39.412 30.8996 39.736 31.0596 40.008C31.2276 40.28 31.4276 40.492 31.6596 40.644C31.8916 40.788 32.1476 40.86 32.4276 40.86C32.7236 40.86 32.9836 40.788 33.2076 40.644C33.4396 40.492 33.6356 40.28 33.7956 40.008C33.9636 39.736 34.0916 39.412 34.1796 39.036C34.2676 38.66 34.3116 38.248 34.3116 37.8C34.3116 37.352 34.2676 36.94 34.1796 36.564C34.0916 36.188 33.9636 35.864 33.7956 35.592C33.6356 35.32 33.4396 35.112 33.2076 34.968C32.9836 34.816 32.7236 34.74 32.4276 34.74C32.1476 34.74 31.8916 34.816 31.6596 34.968C31.4276 35.112 31.2276 35.32 31.0596 35.592C30.8996 35.864 30.7756 36.188 30.6876 36.564C30.5996 36.94 30.5556 37.352 30.5556 37.8ZM29.1636 37.8C29.1636 36.928 29.2996 36.168 29.5716 35.52C29.8516 34.872 30.2356 34.368 30.7236 34.008C31.2196 33.648 31.7876 33.468 32.4276 33.468C33.0836 33.468 33.6556 33.648 34.1436 34.008C34.6396 34.368 35.0236 34.872 35.2956 35.52C35.5676 36.168 35.7036 36.928 35.7036 37.8C35.7036 38.672 35.5676 39.432 35.2956 40.08C35.0236 40.728 34.6396 41.232 34.1436 41.592C33.6556 41.952 33.0836 42.132 32.4276 42.132C31.7876 42.132 31.2196 41.952 30.7236 41.592C30.2356 41.232 29.8516 40.728 29.5716 40.08C29.2996 39.432 29.1636 38.672 29.1636 37.8ZM40.5613 34.284C40.5613 34.06 40.6413 33.872 40.8013 33.72C40.9693 33.568 41.1613 33.492 41.3773 33.492C41.6093 33.492 41.8013 33.568 41.9533 33.72C42.1133 33.872 42.1933 34.06 42.1933 34.284C42.1933 34.5 42.1133 34.688 41.9533 34.848C41.8013 35 41.6093 35.076 41.3773 35.076C41.1613 35.076 40.9693 35 40.8013 34.848C40.6413 34.688 40.5613 34.5 40.5613 34.284ZM40.7413 36.48H42.0133V42H40.7413V36.48ZM43.0288 36.48H46.1608V37.62H43.0288V36.48ZM43.9528 34.56H45.2368V42H43.9528V34.56ZM49.4546 42.12C48.8946 42.12 48.3986 42 47.9666 41.76C47.5426 41.52 47.2146 41.184 46.9826 40.752C46.7506 40.32 46.6346 39.816 46.6346 39.24C46.6346 38.656 46.7506 38.148 46.9826 37.716C47.2226 37.284 47.5586 36.952 47.9906 36.72C48.4226 36.48 48.9306 36.36 49.5146 36.36C50.0986 36.36 50.5946 36.472 51.0026 36.696C51.4106 36.92 51.7226 37.244 51.9386 37.668C52.1626 38.084 52.2746 38.588 52.2746 39.18C52.2746 39.244 52.2706 39.312 52.2626 39.384C52.2626 39.456 52.2586 39.508 52.2506 39.54H47.4026V38.652H51.1466L50.7506 39.204C50.7746 39.156 50.7986 39.092 50.8226 39.012C50.8546 38.924 50.8706 38.852 50.8706 38.796C50.8706 38.5 50.8106 38.244 50.6906 38.028C50.5786 37.812 50.4186 37.644 50.2106 37.524C50.0106 37.404 49.7746 37.344 49.5026 37.344C49.1746 37.344 48.8946 37.416 48.6626 37.56C48.4306 37.704 48.2546 37.912 48.1346 38.184C48.0146 38.456 47.9506 38.792 47.9426 39.192C47.9426 39.592 48.0026 39.932 48.1226 40.212C48.2426 40.484 48.4186 40.692 48.6506 40.836C48.8906 40.98 49.1786 41.052 49.5146 41.052C49.8666 41.052 50.1746 40.98 50.4386 40.836C50.7026 40.692 50.9226 40.472 51.0986 40.176L52.2146 40.632C51.9266 41.128 51.5546 41.5 51.0986 41.748C50.6426 41.996 50.0946 42.12 49.4546 42.12ZM61.4076 38.496V42H60.1116V38.64C60.1116 38.224 60.0356 37.916 59.8836 37.716C59.7396 37.508 59.5076 37.404 59.1876 37.404C58.9716 37.404 58.7796 37.452 58.6116 37.548C58.4516 37.644 58.3236 37.784 58.2276 37.968C58.1396 38.152 58.0956 38.376 58.0956 38.64V42H56.7996V38.64C56.7996 38.224 56.7236 37.916 56.5716 37.716C56.4276 37.508 56.1956 37.404 55.8756 37.404C55.6516 37.404 55.4556 37.452 55.2876 37.548C55.1276 37.644 55.0036 37.784 54.9156 37.968C54.8276 38.152 54.7836 38.376 54.7836 38.64V42H53.5116V36.48H54.7836V37.284C54.9436 36.98 55.1516 36.752 55.4076 36.6C55.6716 36.44 55.9796 36.36 56.3316 36.36C56.7396 36.36 57.0756 36.444 57.3396 36.612C57.6116 36.78 57.8076 37.024 57.9276 37.344C58.1196 37.024 58.3596 36.78 58.6476 36.612C58.9436 36.444 59.2796 36.36 59.6556 36.36C60.0476 36.36 60.3716 36.444 60.6276 36.612C60.8916 36.772 61.0876 37.012 61.2156 37.332C61.3436 37.652 61.4076 38.04 61.4076 38.496ZM63.3144 40.188C63.4904 40.38 63.6664 40.548 63.8424 40.692C64.0264 40.828 64.2104 40.932 64.3944 41.004C64.5784 41.068 64.7624 41.1 64.9464 41.1C65.1784 41.1 65.3584 41.048 65.4864 40.944C65.6224 40.84 65.6904 40.696 65.6904 40.512C65.6904 40.352 65.6384 40.216 65.5344 40.104C65.4304 39.984 65.2864 39.884 65.1024 39.804C64.9184 39.716 64.7024 39.628 64.4544 39.54C64.2064 39.444 63.9584 39.332 63.7104 39.204C63.4704 39.068 63.2704 38.892 63.1104 38.676C62.9584 38.46 62.8824 38.188 62.8824 37.86C62.8824 37.524 62.9664 37.244 63.1344 37.02C63.3104 36.796 63.5424 36.632 63.8304 36.528C64.1264 36.416 64.4424 36.36 64.7784 36.36C65.0824 36.36 65.3664 36.404 65.6304 36.492C65.9024 36.58 66.1464 36.696 66.3624 36.84C66.5784 36.984 66.7624 37.148 66.9144 37.332L66.1944 38.1C66.0104 37.884 65.7904 37.708 65.5344 37.572C65.2784 37.436 65.0144 37.368 64.7424 37.368C64.5584 37.368 64.4064 37.408 64.2864 37.488C64.1664 37.568 64.1064 37.684 64.1064 37.836C64.1064 37.964 64.1584 38.08 64.2624 38.184C64.3744 38.28 64.5184 38.368 64.6944 38.448C64.8784 38.528 65.0824 38.612 65.3064 38.7C65.6104 38.82 65.8904 38.952 66.1464 39.096C66.4024 39.24 66.6064 39.416 66.7584 39.624C66.9184 39.832 66.9984 40.104 66.9984 40.44C66.9984 40.96 66.8184 41.38 66.4584 41.7C66.1064 42.012 65.6264 42.168 65.0184 42.168C64.6424 42.168 64.2944 42.112 63.9744 42C63.6624 41.88 63.3864 41.728 63.1464 41.544C62.9144 41.352 62.7184 41.152 62.5584 40.944L63.3144 40.188ZM72.562 40.284C72.562 40.468 72.606 40.628 72.694 40.764C72.782 40.892 72.902 40.988 73.054 41.052C73.214 41.116 73.394 41.148 73.594 41.148C73.85 41.148 74.082 41.096 74.29 40.992C74.506 40.888 74.678 40.736 74.806 40.536C74.942 40.328 75.01 40.088 75.01 39.816L75.202 40.536C75.202 40.888 75.098 41.184 74.89 41.424C74.69 41.656 74.434 41.832 74.122 41.952C73.818 42.064 73.506 42.12 73.186 42.12C72.842 42.12 72.522 42.052 72.226 41.916C71.93 41.78 71.694 41.58 71.518 41.316C71.342 41.052 71.254 40.732 71.254 40.356C71.254 39.82 71.442 39.396 71.818 39.084C72.194 38.764 72.726 38.604 73.414 38.604C73.782 38.604 74.098 38.644 74.362 38.724C74.634 38.804 74.858 38.9 75.034 39.012C75.21 39.116 75.334 39.212 75.406 39.3V39.96C75.158 39.784 74.894 39.656 74.614 39.576C74.334 39.496 74.038 39.456 73.726 39.456C73.454 39.456 73.234 39.492 73.066 39.564C72.898 39.628 72.77 39.72 72.682 39.84C72.602 39.96 72.562 40.108 72.562 40.284ZM72.154 37.92L71.626 37.008C71.874 36.856 72.194 36.708 72.586 36.564C72.986 36.42 73.442 36.348 73.954 36.348C74.41 36.348 74.81 36.416 75.154 36.552C75.506 36.688 75.782 36.884 75.982 37.14C76.182 37.388 76.282 37.696 76.282 38.064V42H75.01V38.316C75.01 38.14 74.978 37.996 74.914 37.884C74.858 37.772 74.778 37.68 74.674 37.608C74.57 37.536 74.446 37.484 74.302 37.452C74.158 37.42 74.002 37.404 73.834 37.404C73.578 37.404 73.334 37.436 73.102 37.5C72.878 37.556 72.682 37.628 72.514 37.716C72.354 37.796 72.234 37.864 72.154 37.92ZM81.9448 32.64H83.2528V42H81.9448V32.64ZM77.3728 39.24C77.3728 38.632 77.4968 38.116 77.7448 37.692C77.9928 37.26 78.3208 36.932 78.7288 36.708C79.1448 36.476 79.5888 36.36 80.0608 36.36C80.5248 36.36 80.9288 36.476 81.2728 36.708C81.6248 36.94 81.9008 37.272 82.1008 37.704C82.3088 38.128 82.4128 38.64 82.4128 39.24C82.4128 39.832 82.3088 40.344 82.1008 40.776C81.9008 41.208 81.6248 41.54 81.2728 41.772C80.9288 42.004 80.5248 42.12 80.0608 42.12C79.5888 42.12 79.1448 42.008 78.7288 41.784C78.3208 41.552 77.9928 41.22 77.7448 40.788C77.4968 40.356 77.3728 39.84 77.3728 39.24ZM78.7168 39.24C78.7168 39.608 78.7928 39.924 78.9448 40.188C79.0968 40.452 79.2968 40.652 79.5448 40.788C79.8008 40.924 80.0768 40.992 80.3728 40.992C80.6208 40.992 80.8648 40.924 81.1048 40.788C81.3528 40.652 81.5528 40.456 81.7048 40.2C81.8648 39.936 81.9448 39.616 81.9448 39.24C81.9448 38.864 81.8648 38.548 81.7048 38.292C81.5528 38.028 81.3528 37.828 81.1048 37.692C80.8648 37.556 80.6208 37.488 80.3728 37.488C80.0768 37.488 79.8008 37.556 79.5448 37.692C79.2968 37.828 79.0968 38.028 78.9448 38.292C78.7928 38.556 78.7168 38.872 78.7168 39.24ZM89.0113 32.64H90.3193V42H89.0113V32.64ZM84.4393 39.24C84.4393 38.632 84.5633 38.116 84.8113 37.692C85.0593 37.26 85.3873 36.932 85.7952 36.708C86.2113 36.476 86.6553 36.36 87.1273 36.36C87.5913 36.36 87.9953 36.476 88.3393 36.708C88.6913 36.94 88.9673 37.272 89.1673 37.704C89.3753 38.128 89.4793 38.64 89.4793 39.24C89.4793 39.832 89.3753 40.344 89.1673 40.776C88.9673 41.208 88.6913 41.54 88.3393 41.772C87.9953 42.004 87.5913 42.12 87.1273 42.12C86.6553 42.12 86.2113 42.008 85.7952 41.784C85.3873 41.552 85.0593 41.22 84.8113 40.788C84.5633 40.356 84.4393 39.84 84.4393 39.24ZM85.7833 39.24C85.7833 39.608 85.8593 39.924 86.0113 40.188C86.1633 40.452 86.3633 40.652 86.6113 40.788C86.8673 40.924 87.1433 40.992 87.4393 40.992C87.6873 40.992 87.9313 40.924 88.1713 40.788C88.4193 40.652 88.6193 40.456 88.7713 40.2C88.9313 39.936 89.0113 39.616 89.0113 39.24C89.0113 38.864 88.9313 38.548 88.7713 38.292C88.6193 38.028 88.4193 37.828 88.1713 37.692C87.9313 37.556 87.6873 37.488 87.4393 37.488C87.1433 37.488 86.8673 37.556 86.6113 37.692C86.3633 37.828 86.1633 38.028 86.0113 38.292C85.8593 38.556 85.7833 38.872 85.7833 39.24ZM94.3257 42.12C93.7657 42.12 93.2697 42 92.8377 41.76C92.4137 41.52 92.0857 41.184 91.8537 40.752C91.6217 40.32 91.5057 39.816 91.5057 39.24C91.5057 38.656 91.6217 38.148 91.8537 37.716C92.0937 37.284 92.4297 36.952 92.8617 36.72C93.2937 36.48 93.8017 36.36 94.3857 36.36C94.9697 36.36 95.4657 36.472 95.8737 36.696C96.2817 36.92 96.5937 37.244 96.8097 37.668C97.0337 38.084 97.1457 38.588 97.1457 39.18C97.1457 39.244 97.1417 39.312 97.1337 39.384C97.1337 39.456 97.1297 39.508 97.1217 39.54H92.2737V38.652H96.0177L95.6217 39.204C95.6457 39.156 95.6697 39.092 95.6937 39.012C95.7257 38.924 95.7417 38.852 95.7417 38.796C95.7417 38.5 95.6817 38.244 95.5617 38.028C95.4497 37.812 95.2897 37.644 95.0817 37.524C94.8817 37.404 94.6457 37.344 94.3737 37.344C94.0457 37.344 93.7657 37.416 93.5337 37.56C93.3017 37.704 93.1257 37.912 93.0057 38.184C92.8857 38.456 92.8217 38.792 92.8137 39.192C92.8137 39.592 92.8737 39.932 92.9937 40.212C93.1137 40.484 93.2897 40.692 93.5217 40.836C93.7617 40.98 94.0497 41.052 94.3857 41.052C94.7377 41.052 95.0457 40.98 95.3097 40.836C95.5737 40.692 95.7937 40.472 95.9697 40.176L97.0857 40.632C96.7977 41.128 96.4257 41.5 95.9697 41.748C95.5137 41.996 94.9657 42.12 94.3257 42.12ZM102.535 32.64H103.843V42H102.535V32.64ZM97.9627 39.24C97.9627 38.632 98.0867 38.116 98.3347 37.692C98.5827 37.26 98.9107 36.932 99.3187 36.708C99.7347 36.476 100.179 36.36 100.651 36.36C101.115 36.36 101.519 36.476 101.863 36.708C102.215 36.94 102.491 37.272 102.691 37.704C102.899 38.128 103.003 38.64 103.003 39.24C103.003 39.832 102.899 40.344 102.691 40.776C102.491 41.208 102.215 41.54 101.863 41.772C101.519 42.004 101.115 42.12 100.651 42.12C100.179 42.12 99.7347 42.008 99.3187 41.784C98.9107 41.552 98.5827 41.22 98.3347 40.788C98.0867 40.356 97.9627 39.84 97.9627 39.24ZM99.3067 39.24C99.3067 39.608 99.3827 39.924 99.5347 40.188C99.6867 40.452 99.8867 40.652 100.135 40.788C100.391 40.924 100.667 40.992 100.963 40.992C101.211 40.992 101.455 40.924 101.695 40.788C101.943 40.652 102.143 40.456 102.295 40.2C102.455 39.936 102.535 39.616 102.535 39.24C102.535 38.864 102.455 38.548 102.295 38.292C102.143 38.028 101.943 37.828 101.695 37.692C101.455 37.556 101.211 37.488 100.963 37.488C100.667 37.488 100.391 37.556 100.135 37.692C99.8867 37.828 99.6867 38.028 99.5347 38.292C99.3827 38.556 99.3067 38.872 99.3067 39.24Z" fill="white"/>
</svg>
